# xmcd CD database file
#
# Track frame offsets:
#	150
#	33132
#	64066
#	90663
#	124364
#	158214
#
# Disc length: 2409 seconds
#
# Revision: 1
# Processed by: cddbd v1.5.2PL0 Copyright (c) Steve Scherf et al.
# Submitted via: CDex 1.51
#
DISCID=47096706
DTITLE=George Ohtsuka - Maracaibo Cornpone
DYEAR=1978
DGENRE=Jazz
TTITLE0=Maracaibo Cornpone
TTITLE1=Rainbows
TTITLE2=Teregram
TTITLE3=Who Got？
TTITLE4=Ginger
TTITLE5=Believer
EXTD=YEAR: 1978
EXTT0=
EXTT1=
EXTT2=
EXTT3=
EXTT4=
EXTT5=
PLAYORDER=
